<!--?xml version="1.0" encoding="utf-8"?-->
<!-- Generator: Adobe Illustrator 22.1.0, SVG Export Plug-In . SVG Version: 6.00 Build 0)  -->
<svg version="1.1" id="_x32_" xmlns="http://www.w3.org/2000/svg" xmlns:xlink="http://www.w3.org/1999/xlink" x="0px" y="0px" viewBox="0 0 375.671 800" style="width: 235px;" xml:space="preserve">
<style type="text/css">
	.st0{fill:#040000;}
</style>
<g>
	<path class="st0" d="M374.606,711.791c2.629-46.966-36.716-59.263-64.552-103.545c-38.48-61.223-46.132-197.988-47.424-230.76
		h39.047c9.636,0,12.863-15.257,0-22.893c-11.32-6.715-22.624-14.927-25.16-25.916c4.755-5.117,37.677-42.833,35.174-105.473
		C307.077,107.811,206.91,61.609,154.875,66.631c-3.323,0.315-7.967,3.74-5.464,7.204c12.911,17.917,60.553,88.91,52.02,131.553
		c-6.266,31.34-40.211,34.686-57.294,11.195c-18.106-24.916-9.824-78.401-8.943-99.82c0.346-8.605-9.573-9.416-14.359-6.456
		c-33.489,20.711-59.782,73.575-61.53,111.03c-2.015,43.275,18.374,87.619,40.29,104.387c-1.007,12.493-13.288,21.569-25.6,28.868
		c-12.863,7.636-9.636,22.893,0,22.893h39.046c-1.307,32.772-8.943,169.537-47.423,230.76
		C37.782,652.528-1.579,664.824,1.066,711.791c0.85,15.051,11.115,21.782,17.366,24.506l-13.258,22.35V798h365.323v-39.353
		l-13.273-22.35C363.491,733.573,373.756,726.834,374.606,711.791z"></path>
	<path class="st0" d="M174.397,49.36c13.084,0,23.68-10.596,23.68-23.68c0-13.072-10.596-23.68-23.68-23.68
		c-13.083,0-23.663,10.608-23.663,23.68C150.734,38.764,161.314,49.36,174.397,49.36z"></path>
</g>
</svg>
