<!--?xml version="1.0" encoding="utf-8"?-->
<!-- Generator: Adobe Illustrator 22.1.0, SVG Export Plug-In . SVG Version: 6.00 Build 0)  -->
<svg version="1.1" id="_x34_" xmlns="http://www.w3.org/2000/svg" xmlns:xlink="http://www.w3.org/1999/xlink" x="0px" y="0px" viewBox="0 0 520.538 800" style="width: 326px;" xml:space="preserve">
<style type="text/css">
	.st0{fill:#040000;}
</style>
<g>
	<path class="st0" d="M519.236,663.115c0-45.964-42.294-62.741-62.292-88.889c-75.17-94.311-78.679-342.698-78.538-396.884h0.094
		l73.829-46.15V2h-88.239v70.136h-62.291V2h-83.058v70.136h-62.291V2H68.207v129.191l73.836,46.15h0.094
		c0.141,54.187-3.373,302.573-78.544,396.884c-19.999,26.148-62.292,42.925-62.292,88.889c0,30.649,31.147,36.781,31.147,36.781
		L7.068,742.644V798h506.408v-55.356l-25.387-42.748C488.089,699.896,519.236,693.764,519.236,663.115z"></path>
</g>
</svg>
