<!--?xml version="1.0" encoding="utf-8"?-->
<!-- Generator: Adobe Illustrator 22.1.0, SVG Export Plug-In . SVG Version: 6.00 Build 0)  -->
<svg version="1.1" id="_x31__1_" xmlns="http://www.w3.org/2000/svg" xmlns:xlink="http://www.w3.org/1999/xlink" x="0px" y="0px" viewBox="0 0 401.552 800" style="enable-background:new 0 0 401.552 800;" xml:space="preserve">
<style type="text/css">
	.st0{fill:#040000;}
</style>
<g>
	<path class="st0" d="M376.168,751.184c23.412-16.708-7.428-62.754-17.531-76.461c-21.072-28.577-47.021-41.438-47.021-54.336
		c0-12.898,14.186-14.186,14.186-14.186V582.98c0,0-3.87,0-10.316,0c-35.419-24.236-39.8-206.396-40.28-268.907h15.192
		c18.071,0,27.107-3.977,27.107-19.87c0-14.665-38.368-25.941-44.371-43.182h8.289c8.426,0,15.268-6.842,15.268-15.275
		c0-8.152-6.415-14.788-14.46-15.207c1.729-31.625,20.997-71.151,37.225-94.068c13.561-19.19,8.487-29.689-5.104-30.657
		c-18.795-1.356-18.941,11.694-37.865,11.694c-0.876,0-1.654-0.054-2.453-0.107c-3.154-31.038-25.591-56.378-55.136-63.848
		c4.091-4.419,6.621-10.315,6.621-16.814C225.517,13.085,214.432,2,200.772,2c-13.675,0-24.738,11.085-24.738,24.742
		c0,6.506,2.514,12.395,6.621,16.814c-29.545,7.485-51.982,32.81-55.136,63.848c-0.8,0.053-1.592,0.107-2.453,0.107
		c-18.933,0-19.085-13.051-37.872-11.694c-13.584,0.967-18.658,11.466-5.097,30.657c16.227,22.917,35.495,62.443,37.225,94.068
		c-8.054,0.427-14.461,7.07-14.461,15.207c0,8.433,6.842,15.275,15.268,15.275h8.289c-6.004,17.241-44.371,28.517-44.371,43.182
		c0,15.893,9.036,19.87,27.107,19.87h15.191c-0.48,62.51-4.868,244.671-40.279,268.907c-6.446,0-10.316,0-10.316,0v23.221
		c0,0,14.186,1.288,14.186,14.186c0,12.898-25.949,25.759-47.022,54.336c-10.102,13.707-40.942,59.753-17.531,76.461
		c0,0-30.093,15.047-23.411,36.783C4.967,797.688,15.35,798,32.065,798c16.708,0,160.478,0,160.478,0h16.463
		c0,0,143.771,0,160.479,0c16.714,0,27.099-0.312,30.093-10.033C406.261,766.23,376.168,751.184,376.168,751.184z" style="fill: rgb(255, 255, 255);"></path>
</g>
</svg>
