<!--?xml version="1.0" encoding="utf-8"?-->
<!-- Generator: Adobe Illustrator 22.1.0, SVG Export Plug-In . SVG Version: 6.00 Build 0)  -->
<svg version="1.1" id="_x30_" xmlns="http://www.w3.org/2000/svg" xmlns:xlink="http://www.w3.org/1999/xlink" x="0px" y="0px" viewBox="0 0 349.438 800" style="width: 219px;" xml:space="preserve">
<style type="text/css">
	.st0{fill:#040000;}
</style>
<g>
	<path class="st0" d="M327.355,757.259c20.367-14.539,9.766-47.842,0-61.095c-20.361-27.641-56.182-49.659-56.182-60.883
		c0-11.224,12.345-12.344,12.345-12.344v-20.209c0,0-3.368,0-8.977,0c-30.782-21.07-34.628-172.458-35.052-225.856h24.955
		c18.094,0,27.144-3.461,27.144-17.291c0-12.815-38.745-22.667-44.501-37.777c6.292-1.041,11.099-6.497,11.099-13.094
		c0-6.259-4.343-11.503-10.197-12.895c4.224-11.715,25.731-71.994,33.409-104.641c2.924-12.458-8.533-27.734-27.733-27.734
		c-7.148,0-19.923,0-33.136,0v-25.031H194.08c-0.816-16.273-1.949-40.811-1.949-51.873c17.304,0,49.718,4.939,49.718,4.939V46.775
		c0,0-32.414,4.933-49.718,4.933C192.131,34.424,197.07,2,197.07,2h-44.7c0,0,4.933,32.424,4.933,49.708
		c-17.284,0-49.705-4.933-49.705-4.933v44.699c0,0,32.421-4.939,49.705-4.939c0,11.062-1.12,35.599-1.93,51.873H128.92v25.031
		c-13.213,0-25.983,0-33.13,0c-19.207,0-30.676,15.276-27.739,27.734c7.683,32.646,29.191,92.926,33.401,104.641
		c-5.84,1.392-10.196,6.637-10.196,12.895c0,6.597,4.807,12.054,11.112,13.094c-5.761,15.11-44.507,24.962-44.507,37.777
		c0,13.831,9.049,17.291,27.143,17.291h24.949c-0.431,53.398-4.263,204.786-35.046,225.856c-5.622,0-8.977,0-8.977,0v20.209
		c0,0,12.338,1.12,12.338,12.344c0,11.225-35.815,33.243-56.182,60.883c-9.759,13.253-20.367,46.555,0,61.095
		c0,0-26.188,13.094-20.367,32.01C4.323,797.728,13.354,798,27.899,798c14.553,0,139.66,0,139.66,0h14.321c0,0,125.114,0,139.653,0
		c14.546,0,23.589-0.272,26.188-8.732C353.537,770.353,327.355,757.259,327.355,757.259z" style="fill: rgb(255, 255, 255);"></path>
</g>
</svg>
