<!--?xml version="1.0" encoding="utf-8"?-->
<!-- Generator: Adobe Illustrator 22.1.0, SVG Export Plug-In . SVG Version: 6.00 Build 0)  -->
<svg version="1.1" id="_x35_" xmlns="http://www.w3.org/2000/svg" xmlns:xlink="http://www.w3.org/1999/xlink" x="0px" y="0px" viewBox="0 0 533.451 800" style="width: 334px;" xml:space="preserve">
<style type="text/css">
	.st0{fill:#040000;}
</style>
<g>
	<path class="st0" d="M532.118,663.117c0-46.028-72.595-51.04-121.351-137.731c-61.555-109.43-76.482-252.582,46.451-252.582
		v-48.499H353.258c25.484-23.408,41.475-56.979,41.475-94.302C394.734,59.297,337.426,2,266.725,2
		c-70.694,0-127.991,57.297-127.991,128.003c0,37.323,15.974,70.894,41.464,94.302H76.234v48.499
		c122.932,0,108.023,143.152,46.463,252.582C73.928,612.077,1.334,617.089,1.334,663.117c0,30.089,25.49,36.57,26.478,36.805
		L2.498,742.562V798h528.454v-55.438l-25.313-42.641C506.592,699.687,532.118,693.229,532.118,663.117z" style="fill: rgb(255, 255, 255);"></path>
</g>
</svg>
